<svg xmlns="http://www.w3.org/2000/svg" xmlns:xlink="http://www.w3.org/1999/xlink" width="500" zoomAndPan="magnify" viewBox="0 0 375 374.999991" height="500" preserveAspectRatio="xMidYMid meet" version="1.0"><defs><g/></defs><rect x="-37.5" width="450" fill="#ffffff" y="-37.499999" height="449.999989" fill-opacity="1"/><rect x="-37.5" width="450" fill="#ffffff" y="-37.499999" height="449.999989" fill-opacity="1"/><g fill="#000000" fill-opacity="1"><g transform="translate(45.388014, 18.342186)"><g><path d="M -25.109375 -0.890625 C -18.503906 -0.890625 -13.265625 0.503906 -9.390625 3.296875 C -5.515625 6.097656 -3.054688 10.050781 -2.015625 15.15625 L -11.25 19.453125 L -12.21875 19.296875 C -13.257812 15.890625 -14.738281 13.40625 -16.65625 11.84375 C -18.582031 10.289062 -21.257812 9.515625 -24.6875 9.515625 C -28 9.515625 -30.523438 10.285156 -32.265625 11.828125 C -34.003906 13.378906 -34.875 15.628906 -34.875 18.578125 C -34.875 21.472656 -34.007812 23.691406 -32.28125 25.234375 C -30.5625 26.773438 -28.03125 27.546875 -24.6875 27.546875 L -15.421875 27.546875 L -15.421875 37.03125 L -23.5 37.03125 C -26.25 37.03125 -28.4375 37.71875 -30.0625 39.09375 C -31.695312 40.46875 -32.515625 42.429688 -32.515625 44.984375 C -32.515625 47.515625 -31.75 49.414062 -30.21875 50.6875 C -28.6875 51.96875 -26.578125 52.609375 -23.890625 52.609375 C -21.128906 52.609375 -18.6875 51.960938 -16.5625 50.671875 C -14.445312 49.378906 -12.742188 47.640625 -11.453125 45.453125 L -10.484375 45.28125 L -4.078125 52.734375 C -6.242188 55.660156 -9.023438 58.015625 -12.421875 59.796875 C -15.816406 61.578125 -19.863281 62.46875 -24.5625 62.46875 C -31.019531 62.46875 -35.945312 61.117188 -39.34375 58.421875 C -42.738281 55.722656 -44.4375 51.929688 -44.4375 47.046875 C -44.4375 44.097656 -43.75 41.578125 -42.375 39.484375 C -41 37.390625 -39.019531 35.585938 -36.4375 34.078125 L -36.4375 33.1875 C -43.539062 30.6875 -47.09375 25.632812 -47.09375 18.03125 C -47.09375 14.207031 -46.273438 10.878906 -44.640625 8.046875 C -43.015625 5.210938 -40.554688 3.015625 -37.265625 1.453125 C -33.984375 -0.109375 -29.929688 -0.890625 -25.109375 -0.890625 Z M -25.109375 -0.890625 "/></g></g></g><g fill="#000000" fill-opacity="1"><g transform="translate(22.057172, 80.567051)"><g><path d="M 46.203125 -10.734375 L 54.953125 -45.53125 L 62.734375 -45.53125 L 49.484375 0 L 43.171875 0 L 32.109375 -34.5 L 21.328125 0 L 15.015625 0 L 1.8125 -45.53125 L 9.546875 -45.53125 L 18.515625 -11.4375 L 29.109375 -45.53125 L 35.390625 -45.53125 Z M 46.203125 -10.734375 "/></g></g></g></svg>