<svg xmlns="http://www.w3.org/2000/svg" xmlns:xlink="http://www.w3.org/1999/xlink" width="50" zoomAndPan="magnify" viewBox="0 0 37.5 37.499999" height="50" preserveAspectRatio="xMidYMid meet" version="1.0"><defs><g/><clipPath id="cb9fad75d0"><path d="M 0 0 L 37.007812 0 L 37.007812 37.007812 L 0 37.007812 Z M 0 0 " clip-rule="nonzero"/></clipPath></defs><g clip-path="url(#cb9fad75d0)"><path fill="#ffffff" d="M 0 0 L 37.007812 0 L 37.007812 37.007812 L 0 37.007812 Z M 0 0 " fill-opacity="1" fill-rule="nonzero"/><path fill="#ffffff" d="M 0 0 L 37.007812 0 L 37.007812 37.007812 L 0 37.007812 Z M 0 0 " fill-opacity="1" fill-rule="nonzero"/></g><g fill="#000000" fill-opacity="1"><g transform="translate(18.099176, 4.935117)"><g><path d="M -8.5 -0.296875 C -6.269531 -0.296875 -4.5 0.175781 -3.1875 1.125 C -1.875 2.070312 -1.039062 3.410156 -0.6875 5.140625 L -3.8125 6.59375 L -4.140625 6.53125 C -4.492188 5.382812 -4.992188 4.546875 -5.640625 4.015625 C -6.296875 3.484375 -7.203125 3.21875 -8.359375 3.21875 C -9.484375 3.21875 -10.335938 3.476562 -10.921875 4 C -11.515625 4.53125 -11.8125 5.296875 -11.8125 6.296875 C -11.8125 7.273438 -11.519531 8.023438 -10.9375 8.546875 C -10.351562 9.066406 -9.492188 9.328125 -8.359375 9.328125 L -5.21875 9.328125 L -5.21875 12.546875 L -7.96875 12.546875 C -8.894531 12.546875 -9.632812 12.78125 -10.1875 13.25 C -10.738281 13.71875 -11.015625 14.382812 -11.015625 15.25 C -11.015625 16.101562 -10.753906 16.742188 -10.234375 17.171875 C -9.722656 17.609375 -9.007812 17.828125 -8.09375 17.828125 C -7.15625 17.828125 -6.328125 17.609375 -5.609375 17.171875 C -4.898438 16.734375 -4.320312 16.144531 -3.875 15.40625 L -3.546875 15.34375 L -1.390625 17.875 C -2.117188 18.863281 -3.054688 19.660156 -4.203125 20.265625 C -5.359375 20.867188 -6.734375 21.171875 -8.328125 21.171875 C -10.515625 21.171875 -12.179688 20.710938 -13.328125 19.796875 C -14.484375 18.878906 -15.0625 17.59375 -15.0625 15.9375 C -15.0625 14.945312 -14.828125 14.09375 -14.359375 13.375 C -13.890625 12.664062 -13.21875 12.054688 -12.34375 11.546875 L -12.34375 11.25 C -14.75 10.40625 -15.953125 8.691406 -15.953125 6.109375 C -15.953125 4.816406 -15.675781 3.6875 -15.125 2.71875 C -14.570312 1.757812 -13.738281 1.015625 -12.625 0.484375 C -11.519531 -0.0351562 -10.144531 -0.296875 -8.5 -0.296875 Z M -8.5 -0.296875 "/></g></g></g><g fill="#000000" fill-opacity="1"><g transform="translate(11.082876, 27.123781)"><g><path d="M 16.890625 -3.921875 L 20.09375 -16.640625 L 22.9375 -16.640625 L 18.09375 0 L 15.78125 0 L 11.734375 -12.609375 L 7.796875 0 L 5.484375 0 L 0.65625 -16.640625 L 3.484375 -16.640625 L 6.765625 -4.1875 L 10.640625 -16.640625 L 12.9375 -16.640625 Z M 16.890625 -3.921875 "/></g></g></g></svg>